<svg xmlns="http://www.w3.org/2000/svg" width="512" height="512" viewBox="0 0 512 512">
  <defs>
    <linearGradient id="g" x1="0" y1="0" x2="1" y2="1">
      <stop offset="0%" stop-color="#7c5cff" />
      <stop offset="100%" stop-color="#2dd4bf" />
    </linearGradient>
  </defs>
  <rect width="512" height="512" rx="128" fill="#0b0f17" />
  <path
    d="M170 216c0-18 14-32 32-32h16c18 0 32 14 32 32v130c0 18-14 32-32 32h-16c-18 0-32-14-32-32V216z"
    fill="url(#g)"
  />
  <path
    d="M258 170c0-10 8-18 18-18h16c10 0 18 8 18 18v172c0 10-8 18-18 18h-16c-10 0-18-8-18-18V170z"
    fill="#ffffff"
    opacity="0.18"
  />
  <path
    d="M370 250c0-14 11-26 26-26h10c14 0 26 11 26 26v82c0 14-11 26-26 26h-10c-14 0-26-11-26-26v-82z"
    fill="url(#g)"
    opacity="0.9"
  />
</svg>

